<svg width="30" height="32" viewBox="0 0 30 32" fill="none" xmlns="http://www.w3.org/2000/svg">
  <path d="M29.0611 12.778C28.9595 12.2483 28.8231 11.7265 28.6526 11.216C28.2433 9.98113 27.6748 8.80862 26.9623 7.72998C26.6065 7.20422 26.2175 6.70314 25.7979 6.22998C24.4925 4.66096 22.8832 3.39046 21.0734 2.49998C20.5169 2.1983 19.9316 1.95668 19.3269 1.77898C18.1211 1.35493 16.8622 1.11276 15.5892 1.05998C15.341 1.00806 15.0874 0.987903 14.8343 0.999978C14.561 0.990046 14.2875 1.01016 14.0183 1.05998C12.7472 1.11398 11.4903 1.35682 10.2865 1.78098C9.68529 1.9692 9.10094 2.21042 8.53991 2.50198C6.72999 3.36418 5.11908 4.61393 3.81449 6.16798C3.40599 6.64898 2.99846 7.18998 2.65012 7.66798C1.9563 8.70662 1.40634 9.83985 1.01611 11.035C0.833923 11.5478 0.678133 12.0702 0.549391 12.6C0.365876 13.7311 0.268548 14.8752 0.258297 16.022C0.248687 16.2639 0.268243 16.5061 0.316516 16.743C0.343064 17.3866 0.401358 18.0284 0.491172 18.666C0.783782 20.4306 1.39603 22.1227 2.29595 23.654C2.60502 24.2216 2.95601 24.7639 3.34583 25.276C4.1257 26.3292 5.04968 27.2602 6.0889 28.04C6.49741 28.34 6.96219 28.701 7.37166 28.94C8.47092 29.6063 9.6458 30.1303 10.8696 30.5C11.4518 30.68 12.0942 30.8 12.6773 30.921C13.3905 31.0406 14.1118 31.1008 14.8343 31.101C15.5956 31.1031 16.3558 31.0429 17.1078 30.921C17.7175 30.8158 18.3211 30.6753 18.9155 30.5C20.1456 30.1203 21.3218 29.5749 22.4134 28.878C22.8802 28.578 23.2867 28.278 23.6962 27.978C24.6893 27.1648 25.5891 26.2375 26.3781 25.214C26.7284 24.673 27.0777 24.192 27.428 23.592C28.2572 22.081 28.8292 20.4349 29.1193 18.725C29.2379 18.0913 29.2964 17.4473 29.2939 16.802C29.2939 16.562 29.3521 16.321 29.3521 16.081C29.4081 14.9713 29.3101 13.8591 29.0611 12.778ZM19.616 3.58398C21.8181 4.49395 23.7343 6.01145 25.1546 7.96998L23.3517 13.018L20.4408 13.979L15.5892 10.374V6.58798L19.616 3.58398ZM19.3832 15.184L17.6366 20.712H12.0359L10.2894 15.184L14.8372 11.759L19.3851 15.184H19.3832ZM14.0193 2.68398C14.3104 2.68398 14.5442 2.62398 14.8353 2.62398C15.1086 2.61405 15.3822 2.63416 15.6513 2.68398C16.3577 2.72487 17.0596 2.82521 17.7501 2.98398L15.6513 4.54498L14.8353 5.14498L14.0193 4.54498L11.9195 2.98298C12.61 2.82421 13.3119 2.72387 14.0183 2.68298L14.0193 2.68398ZM10.0546 3.58398L14.0775 6.58398V10.374L9.29579 13.979L6.32178 12.958L4.51506 8.02998C5.9169 6.03672 7.83931 4.49488 10.0585 3.58398H10.0546ZM2.12421 13.2C2.24342 12.6683 2.39807 12.1457 2.58705 11.636C2.81992 10.975 3.11199 10.314 3.40308 9.65298L4.33555 12.237L4.68583 13.137L3.8698 13.798L1.89133 15.421C1.90818 14.6752 1.98608 13.9322 2.12421 13.2ZM1.89133 17.466L5.62218 14.4L8.71263 15.482L10.5785 21.371L9.17935 23.413L4.10656 23.593C2.92705 21.7497 2.16956 19.6543 1.89133 17.465V17.466ZM8.24688 27.566C7.78016 27.266 7.3736 26.966 6.90591 26.666C6.33463 26.198 5.78942 25.6972 5.27287 25.166L7.95482 25.046L8.8281 24.986L9.17935 26L10.0526 28.4C9.42411 28.1844 8.8187 27.9029 8.24591 27.56L8.24688 27.566ZM17.7511 29.066C16.7986 29.3075 15.8211 29.4288 14.8402 29.427C13.9004 29.4163 12.9636 29.3159 12.0418 29.127L10.4087 24.44L11.8642 22.277H17.8112L19.3269 24.377L17.7511 29.066ZM22.8239 26.542C22.4244 26.8824 21.9949 27.1837 21.5411 27.442C20.9357 27.8336 20.2904 28.1559 19.617 28.403L20.433 25.939L20.7833 24.917H21.6566L24.3385 24.977C23.9244 25.5835 23.4117 26.1116 22.8229 26.538L22.8239 26.542ZM25.6223 23.477L20.4913 23.357L19.0358 21.374L20.8435 15.545L23.9921 14.523L27.6657 17.523C27.5281 19.6623 26.8207 21.7211 25.6213 23.473L25.6223 23.477ZM25.8551 13.863L24.9819 13.142L25.273 12.361L26.2646 9.66098C26.6041 10.3189 26.896 11.0017 27.1379 11.704C27.3011 12.2167 27.4375 12.7381 27.5464 13.266C27.6847 13.9787 27.7626 14.7024 27.7793 15.429L25.8551 13.863Z" fill="#6A7787"/>
</svg>

