<svg width="52" height="55" viewBox="0 0 52 55" fill="none" xmlns="http://www.w3.org/2000/svg">
  <path d="M6.05835 51.9942C5.33035 51.9942 4.67702 51.8822 4.09835 51.6582C3.51968 51.4342 3.02968 51.1075 2.62835 50.6782C2.22702 50.2395 1.91902 49.7075 1.70435 49.0822C1.48968 48.4568 1.38235 47.7382 1.38235 46.9262C1.38235 46.1142 1.50368 45.3955 1.74635 44.7702C1.99835 44.1448 2.33902 43.6175 2.76835 43.1882C3.19768 42.7495 3.70168 42.4182 4.28035 42.1942C4.85902 41.9702 5.47968 41.8582 6.14235 41.8582C6.54368 41.8582 6.90768 41.8908 7.23435 41.9562C7.56102 42.0122 7.84568 42.0775 8.08835 42.1522C8.33102 42.2268 8.53168 42.3062 8.69035 42.3902C8.84902 42.4742 8.96102 42.5348 9.02635 42.5722L8.50835 44.0142C8.28435 43.8742 7.96235 43.7435 7.54235 43.6222C7.13168 43.4915 6.68368 43.4262 6.19835 43.4262C5.77835 43.4262 5.38635 43.5008 5.02235 43.6502C4.65835 43.7902 4.34102 44.0048 4.07035 44.2942C3.80902 44.5835 3.60368 44.9475 3.45435 45.3862C3.30502 45.8248 3.23035 46.3335 3.23035 46.9122C3.23035 47.4255 3.28635 47.8968 3.39835 48.3262C3.51968 48.7555 3.70168 49.1288 3.94435 49.4462C4.18702 49.7542 4.49502 49.9968 4.86835 50.1742C5.24168 50.3422 5.68968 50.4262 6.21235 50.4262C6.83768 50.4262 7.34635 50.3655 7.73835 50.2442C8.13035 50.1135 8.43368 49.9922 8.64835 49.8802L9.12435 51.3222C9.01235 51.3968 8.85835 51.4715 8.66235 51.5462C8.47568 51.6208 8.25168 51.6955 7.99035 51.7702C7.72902 51.8355 7.43502 51.8868 7.10835 51.9242C6.78168 51.9708 6.43168 51.9942 6.05835 51.9942ZM17.3739 51.7842C17.2432 51.4015 17.1079 51.0235 16.9679 50.6502C16.8279 50.2768 16.6925 49.8942 16.5619 49.5022H12.4739C12.3432 49.8942 12.2079 50.2815 12.0679 50.6642C11.9372 51.0375 11.8065 51.4108 11.6759 51.7842H9.84185C10.2059 50.7482 10.5512 49.7915 10.8779 48.9142C11.2045 48.0368 11.5219 47.2062 11.8299 46.4222C12.1472 45.6382 12.4599 44.8915 12.7679 44.1822C13.0759 43.4728 13.3932 42.7728 13.7199 42.0822H15.3859C15.7125 42.7728 16.0299 43.4728 16.3379 44.1822C16.6459 44.8915 16.9539 45.6382 17.2619 46.4222C17.5792 47.2062 17.9012 48.0368 18.2279 48.9142C18.5639 49.7915 18.9139 50.7482 19.2779 51.7842H17.3739ZM14.5179 43.9582C14.3032 44.4528 14.0559 45.0548 13.7759 45.7642C13.5052 46.4735 13.2205 47.2435 12.9219 48.0742H16.1139C15.8152 47.2435 15.5259 46.4688 15.2459 45.7502C14.9659 45.0315 14.7232 44.4342 14.5179 43.9582ZM23.0476 50.4682C23.6822 50.4682 24.1442 50.3608 24.4336 50.1462C24.7229 49.9315 24.8676 49.6282 24.8676 49.2362C24.8676 49.0028 24.8162 48.8022 24.7136 48.6342C24.6202 48.4662 24.4802 48.3168 24.2936 48.1862C24.1162 48.0462 23.8969 47.9202 23.6356 47.8082C23.3742 47.6868 23.0756 47.5702 22.7396 47.4582C22.4036 47.3368 22.0769 47.2062 21.7596 47.0662C21.4516 46.9168 21.1762 46.7348 20.9336 46.5202C20.7002 46.3055 20.5089 46.0488 20.3596 45.7502C20.2196 45.4515 20.1496 45.0922 20.1496 44.6722C20.1496 43.7948 20.4529 43.1088 21.0596 42.6142C21.6662 42.1102 22.4922 41.8582 23.5376 41.8582C24.1442 41.8582 24.6809 41.9282 25.1476 42.0682C25.6236 42.1988 25.9969 42.3435 26.2676 42.5022L25.7216 43.9302C25.4042 43.7528 25.0542 43.6175 24.6716 43.5242C24.2982 43.4308 23.9109 43.3842 23.5096 43.3842C23.0336 43.3842 22.6602 43.4822 22.3896 43.6782C22.1282 43.8742 21.9976 44.1495 21.9976 44.5042C21.9976 44.7188 22.0396 44.9055 22.1236 45.0642C22.2169 45.2135 22.3429 45.3488 22.5016 45.4702C22.6696 45.5915 22.8609 45.7035 23.0756 45.8062C23.2996 45.9088 23.5422 46.0068 23.8036 46.1002C24.2609 46.2682 24.6669 46.4408 25.0216 46.6182C25.3856 46.7862 25.6889 46.9915 25.9316 47.2342C26.1836 47.4675 26.3749 47.7475 26.5056 48.0742C26.6362 48.3915 26.7016 48.7788 26.7016 49.2362C26.7016 50.1135 26.3889 50.7948 25.7636 51.2802C25.1476 51.7562 24.2422 51.9942 23.0476 51.9942C22.6462 51.9942 22.2776 51.9662 21.9416 51.9102C21.6149 51.8635 21.3209 51.8028 21.0596 51.7282C20.8076 51.6535 20.5882 51.5788 20.4016 51.5042C20.2149 51.4202 20.0656 51.3455 19.9536 51.2802L20.4716 49.8382C20.7236 49.9782 21.0642 50.1182 21.4936 50.2582C21.9229 50.3982 22.4409 50.4682 23.0476 50.4682ZM28.2561 42.0822H30.0201V51.7842H28.2561V42.0822ZM38.882 51.7842C38.5647 51.2522 38.21 50.6828 37.818 50.0762C37.426 49.4602 37.02 48.8442 36.6 48.2282C36.18 47.6028 35.7507 47.0008 35.312 46.4222C34.8827 45.8342 34.472 45.3068 34.08 44.8402V51.7842H32.344V42.0822H33.786C34.1593 42.4742 34.5607 42.9408 34.99 43.4822C35.4193 44.0142 35.8487 44.5695 36.278 45.1482C36.7167 45.7268 37.1367 46.3102 37.538 46.8982C37.9487 47.4768 38.3127 48.0182 38.63 48.5222V42.0822H40.38V51.7842H38.882ZM44.1493 46.9262C44.1493 47.4582 44.2146 47.9435 44.3453 48.3822C44.476 48.8115 44.6626 49.1802 44.9053 49.4882C45.1573 49.7868 45.4606 50.0202 45.8153 50.1882C46.17 50.3562 46.5713 50.4402 47.0193 50.4402C47.458 50.4402 47.8546 50.3562 48.2093 50.1882C48.564 50.0202 48.8626 49.7868 49.1053 49.4882C49.3573 49.1802 49.5486 48.8115 49.6793 48.3822C49.81 47.9435 49.8753 47.4582 49.8753 46.9262C49.8753 46.3942 49.81 45.9135 49.6793 45.4842C49.5486 45.0455 49.3573 44.6768 49.1053 44.3782C48.8626 44.0702 48.564 43.8322 48.2093 43.6642C47.8546 43.4962 47.458 43.4122 47.0193 43.4122C46.5713 43.4122 46.17 43.4962 45.8153 43.6642C45.4606 43.8322 45.1573 44.0702 44.9053 44.3782C44.6626 44.6862 44.476 45.0548 44.3453 45.4842C44.2146 45.9135 44.1493 46.3942 44.1493 46.9262ZM51.7233 46.9262C51.7233 47.7568 51.5973 48.4895 51.3453 49.1242C51.1026 49.7588 50.7666 50.2908 50.3373 50.7202C49.9173 51.1402 49.4226 51.4575 48.8533 51.6722C48.284 51.8868 47.6773 51.9942 47.0333 51.9942C46.3893 51.9942 45.778 51.8868 45.1993 51.6722C44.63 51.4575 44.1306 51.1402 43.7013 50.7202C43.2813 50.2908 42.9453 49.7588 42.6933 49.1242C42.4413 48.4895 42.3153 47.7568 42.3153 46.9262C42.3153 46.0955 42.4413 45.3675 42.6933 44.7422C42.9453 44.1075 43.286 43.5755 43.7153 43.1462C44.154 42.7168 44.658 42.3948 45.2273 42.1802C45.7966 41.9655 46.3986 41.8582 47.0333 41.8582C47.668 41.8582 48.27 41.9655 48.8393 42.1802C49.4086 42.3948 49.9033 42.7168 50.3233 43.1462C50.7526 43.5755 51.0933 44.1075 51.3453 44.7422C51.5973 45.3675 51.7233 46.0955 51.7233 46.9262Z" fill="#6A7787"/>
  <path d="M16.8749 27.6461C17.1767 27.8951 17.4183 28.0821 17.72 28.3311C18.0485 28.5798 18.3917 28.8072 18.7476 29.0121C19.0974 29.2234 19.4604 29.4105 19.8343 29.5721C20.1613 29.7561 20.5064 29.9036 20.8638 30.0121V30.0121C22.8894 30.8255 25.0625 31.1745 27.2322 31.0348C29.4018 30.8951 31.5159 30.27 33.4274 29.2031C33.5806 29.1441 33.7235 29.0601 33.8505 28.9541C33.8818 28.9517 33.9113 28.9378 33.9334 28.9148C33.9555 28.8918 33.9688 28.8614 33.9708 28.8291C34.2124 28.7051 34.3939 28.5181 34.6355 28.3931C34.6956 28.3311 34.8169 28.2691 34.8771 28.2061C36.7096 26.9139 38.2366 25.2136 39.3452 23.2309C40.4537 21.2482 41.1154 19.034 41.2812 16.7521V16.4411C41.2812 16.1921 41.3413 15.8811 41.3413 15.6321V14.9471C41.2786 12.7118 40.7431 10.5177 39.7722 8.51791C38.8014 6.51811 37.4185 4.76091 35.7203 3.36906V3.36906C35.4185 3.12006 35.1769 2.93306 34.8752 2.68406C34.5471 2.434 34.2042 2.20523 33.8486 1.99906C33.4988 1.7877 33.1357 1.60062 32.7618 1.43906C32.4344 1.2563 32.0889 1.11013 31.7313 1.00306V1.00306C29.7085 0.21576 27.545 -0.113929 25.3877 0.0363541C23.2303 0.186637 21.1295 0.813378 19.2279 1.87406C19.0748 1.93297 18.9319 2.01706 18.8048 2.12306C18.7737 2.12538 18.7444 2.13918 18.7223 2.16196C18.7002 2.18473 18.6868 2.21494 18.6845 2.24706C18.4544 2.37811 18.2325 2.52372 18.0199 2.68306C17.9597 2.74506 17.8384 2.80706 17.7782 2.87006C15.9458 4.1622 14.4187 5.86254 13.3102 7.84523C12.2016 9.82791 11.54 12.0422 11.3742 14.3241V14.6351C11.2722 14.8695 11.232 15.1275 11.2577 15.3831V16.0681C11.3333 18.3003 11.874 20.4896 12.8432 22.4873C13.8125 24.4851 15.1875 26.2445 16.8749 27.6461V27.6461ZM19.0494 27.2121L19.6529 26.1541C19.8458 26.292 20.0475 26.4166 20.2564 26.5271C20.4379 26.6521 20.6795 26.7141 20.86 26.8381L20.2564 27.8961C20.075 27.7721 19.8334 27.7091 19.6529 27.5851C19.4724 27.4611 19.2308 27.3351 19.0494 27.2121ZM32.4581 27.8971L31.8546 26.8391C32.036 26.7151 32.2776 26.6521 32.4581 26.5281C32.6511 26.3901 32.8527 26.2655 33.0616 26.1551L33.6652 27.2131C33.5319 27.3094 33.3903 27.3927 33.2421 27.4621C33.0005 27.5861 32.8191 27.7111 32.5775 27.8351C32.545 27.8678 32.5031 27.8888 32.4581 27.8951V27.8971ZM39.7665 16.2561H38.5594C38.5594 16.0071 38.6196 15.7561 38.6196 15.5711C38.6325 15.3409 38.6122 15.1101 38.5594 14.8861H39.7675V15.8201C39.8276 15.9431 39.7675 16.1301 39.7675 16.2541L39.7665 16.2561ZM33.6661 3.92906L33.0626 4.98706C32.8697 4.84911 32.668 4.7245 32.4591 4.61406C32.252 4.52296 32.0505 4.4191 31.8555 4.30306L32.4591 3.24506C32.6405 3.36906 32.8821 3.43206 33.0626 3.55606C33.2431 3.68006 33.4857 3.80506 33.6661 3.92906ZM20.2574 3.24406L20.8638 4.30306C20.6824 4.42706 20.4408 4.49006 20.2603 4.61406C20.0673 4.752 19.8657 4.87661 19.6568 4.98706L19.0494 3.92906C19.1826 3.83273 19.3242 3.74937 19.4724 3.68006C19.714 3.55606 19.8955 3.43106 20.1371 3.30706C20.1694 3.27302 20.2117 3.25088 20.2574 3.24406V3.24406ZM12.949 14.8851H14.157C14.157 15.1341 14.0969 15.3851 14.0969 15.5701C14.084 15.8002 14.1043 16.031 14.157 16.2551H12.949V15.3211C12.8888 15.1961 12.949 15.0121 12.949 14.8851ZM13.1304 17.9351H15.0633C15.7881 17.9351 15.8483 17.3131 15.8483 16.9351C15.8009 16.7102 15.7807 16.4801 15.7881 16.2501C15.7881 16.0011 15.728 15.7501 15.728 15.5651C15.7151 15.3349 15.7354 15.1041 15.7881 14.8801C15.7881 14.6311 15.8483 14.3801 15.8483 14.1951C15.8831 14.0737 15.8887 13.9454 15.8648 13.8213C15.8408 13.6972 15.7879 13.5809 15.7107 13.4825C15.6335 13.3841 15.5342 13.3066 15.4214 13.2565C15.3086 13.2064 15.1857 13.1853 15.0633 13.1951H13.1304C13.6421 9.97511 15.274 7.05734 17.721 4.98706L18.3245 6.04506L18.6865 6.73006C18.7411 6.83918 18.8201 6.93338 18.917 7.00491C19.0138 7.07644 19.1258 7.12325 19.2436 7.14151C19.3615 7.15976 19.4818 7.14893 19.5948 7.10991C19.7078 7.07089 19.8102 7.0048 19.8935 6.91706C20.075 6.79306 20.2555 6.60606 20.4369 6.48106C20.6299 6.34311 20.8315 6.2185 21.0404 6.10806C21.2288 5.97988 21.4314 5.87547 21.644 5.79706C21.8602 5.68168 22.082 5.57788 22.3086 5.48606C22.4235 5.45268 22.529 5.39175 22.6167 5.30826C22.7043 5.22476 22.7715 5.12108 22.8127 5.00568C22.854 4.89029 22.8682 4.76646 22.8541 4.64434C22.84 4.52222 22.7981 4.40527 22.7317 4.30306L22.3698 3.61806L21.7662 2.56006C24.7507 1.43937 28.023 1.43937 31.0075 2.56006V2.56006L30.404 3.61806L29.9809 4.30306C29.9145 4.40527 29.8726 4.52222 29.8585 4.64434C29.8444 4.76646 29.8586 4.89029 29.8999 5.00568C29.9411 5.12108 30.0083 5.22476 30.0959 5.30826C30.1835 5.39175 30.2891 5.45268 30.404 5.48606C30.6362 5.56356 30.8591 5.66789 31.0686 5.79706C31.2501 5.92106 31.4917 5.98406 31.6722 6.10806C31.8651 6.246 32.0667 6.37061 32.2757 6.48106C32.471 6.60658 32.6531 6.7527 32.8191 6.91706C32.9024 7.005 33.0049 7.07128 33.118 7.11042C33.231 7.14956 33.3515 7.16045 33.4695 7.14219C33.5875 7.12393 33.6996 7.07704 33.7965 7.00538C33.8934 6.93373 33.9725 6.83936 34.0271 6.73006L34.389 6.04506L34.9926 4.98706C37.4103 7.08658 39.0352 9.99505 39.5831 13.2041H37.6502C36.9254 13.2041 36.8653 13.8261 36.8653 14.2041C36.9126 14.429 36.9328 14.659 36.9254 14.8891C36.9254 15.1381 36.9856 15.3891 36.9856 15.5741C36.9985 15.8042 36.9782 16.035 36.9254 16.2591C36.9254 16.5081 36.8653 16.7591 36.8653 16.9441C36.8305 17.0654 36.8248 17.1937 36.8488 17.3178C36.8727 17.4419 36.9256 17.5582 37.0029 17.6566C37.0801 17.755 37.1794 17.8325 37.2921 17.8826C37.4049 17.9327 37.5278 17.9538 37.6502 17.9441H39.5831C39.0734 21.1673 37.4414 24.0885 34.9926 26.1611L34.389 25.1031L34.0271 24.4181C33.9725 24.3088 33.8934 24.2144 33.7965 24.1427C33.6996 24.0711 33.5875 24.0242 33.4695 24.0059C33.3515 23.9877 33.231 23.9985 33.118 24.0377C33.0049 24.0768 32.9024 24.1431 32.8191 24.2311C32.6376 24.3551 32.4571 24.5421 32.2757 24.6671C32.0827 24.805 31.8811 24.9296 31.6722 25.0401C31.4838 25.1682 31.2811 25.2727 31.0686 25.3511C30.8524 25.4664 30.6305 25.5702 30.404 25.6621C30.2891 25.6954 30.1835 25.7564 30.0959 25.8399C30.0083 25.9233 29.9411 26.027 29.8999 26.1424C29.8586 26.2578 29.8444 26.3816 29.8585 26.5038C29.8726 26.6259 29.9145 26.7428 29.9809 26.8451L30.3428 27.5301L30.9464 28.5881C27.9619 29.7087 24.6896 29.7087 21.7051 28.5881V28.5881L22.3086 27.5301L22.6706 26.8451C22.7369 26.7428 22.7789 26.6259 22.793 26.5038C22.807 26.3816 22.7929 26.2578 22.7516 26.1424C22.7103 26.027 22.6431 25.9233 22.5555 25.8399C22.4679 25.7564 22.3624 25.6954 22.2475 25.6621C22.0153 25.5845 21.7923 25.4802 21.5828 25.3511C21.4014 25.2271 21.1598 25.1641 20.9793 25.0401C20.7863 24.9021 20.5847 24.7775 20.3758 24.6671C20.1805 24.5415 19.9984 24.3954 19.8324 24.2311C19.749 24.1431 19.6466 24.0768 19.5335 24.0377C19.4204 23.9985 19.2999 23.9877 19.1819 24.0059C19.064 24.0242 18.9519 24.0711 18.8549 24.1427C18.758 24.2144 18.679 24.3088 18.6244 24.4181L18.2624 25.1031L17.6618 26.1521C15.2691 24.0404 13.6664 21.1343 13.1304 17.9351V17.9351Z" fill="#6A7787"/>
  <path d="M31.1928 11.511C31.0379 11.56 30.8985 11.6507 30.789 11.7738C30.6795 11.8968 30.6039 12.0478 30.5699 12.211L28.6477 13.389C28.3562 13.0652 28.0028 12.8071 27.6096 12.6312C27.2165 12.4553 26.7922 12.3653 26.3636 12.367C26.0454 12.3682 25.7295 12.4226 25.4282 12.528L24.2852 10.547C24.3371 10.3543 24.3371 10.1507 24.2852 9.95803C24.1951 9.69533 24.0075 9.48027 23.7635 9.36015C23.5196 9.24003 23.2394 9.2247 22.9845 9.31753C22.7296 9.41035 22.5209 9.60373 22.4043 9.85512C22.2878 10.1065 22.2729 10.3953 22.363 10.658C22.4105 10.8177 22.4985 10.9613 22.6179 11.0742C22.7373 11.187 22.8838 11.265 23.0422 11.3L24.1852 13.281C23.8853 13.5783 23.6476 13.9358 23.4867 14.3313C23.3259 14.7269 23.2452 15.1522 23.2499 15.581C23.251 15.909 23.3037 16.2345 23.4061 16.545L21.4839 17.723C21.2215 17.6529 20.9429 17.6913 20.7076 17.83C20.4803 17.9649 20.3142 18.1873 20.246 18.4484C20.1777 18.7094 20.2129 18.9877 20.3438 19.222C20.4746 19.4563 20.6904 19.6275 20.9437 19.6978C21.197 19.7681 21.4671 19.7319 21.6944 19.597C21.8129 19.5314 21.9162 19.44 21.9969 19.3291C22.0777 19.2183 22.1341 19.0906 22.1621 18.955L24.0843 17.777C24.3759 18.0988 24.7289 18.355 25.1211 18.5295C25.5134 18.704 25.9364 18.793 26.3636 18.791C26.6818 18.7899 26.9977 18.7355 27.299 18.63L28.442 20.611C28.3739 20.8814 28.4112 21.1686 28.5458 21.411C28.6767 21.6453 28.8925 21.8165 29.1458 21.8868C29.3991 21.9571 29.6691 21.9209 29.8965 21.786C30.1239 21.6512 30.2899 21.4287 30.3582 21.1677C30.4264 20.9066 30.3912 20.6283 30.2604 20.394C30.1967 20.2719 30.108 20.1655 30.0004 20.0823C29.8928 19.9991 29.769 19.941 29.6374 19.912L28.4944 17.931C28.808 17.63 29.0576 17.2652 29.2275 16.8597C29.3973 16.4541 29.4837 16.0167 29.4812 15.575C29.4801 15.2471 29.4273 14.9215 29.325 14.611L31.2472 13.433C31.4341 13.4866 31.6317 13.4866 31.8187 13.433C32.069 13.3347 32.2732 13.141 32.3891 12.8921C32.505 12.6431 32.5238 12.3578 32.4416 12.095C32.3976 11.9716 32.3303 11.8584 32.2434 11.762C32.1566 11.6656 32.052 11.588 31.9358 11.5337C31.8196 11.4793 31.6941 11.4493 31.5665 11.4455C31.439 11.4416 31.3119 11.4639 31.1928 11.511ZM27.7637 16.596C27.6227 16.7962 27.4445 16.9654 27.2394 17.094C27.0344 17.2226 26.8066 17.3079 26.5693 17.345L26.154 16.596L25.3777 17.024C25.1836 16.8787 25.0193 16.695 24.8946 16.4837C24.7698 16.2723 24.687 16.0376 24.651 15.793L25.3777 15.365L24.9625 14.565C25.1035 14.3649 25.2817 14.1956 25.4868 14.0671C25.6918 13.9385 25.9196 13.8532 26.1569 13.816L26.5722 14.565L27.3485 14.137C27.5426 14.2824 27.7069 14.4661 27.8316 14.6774C27.9564 14.8887 28.0392 15.1235 28.0752 15.368L27.3485 15.796L27.7637 16.596Z" fill="#6A7787"/>
</svg>
