<svg width="31" height="47" viewBox="0 0 31 47" fill="none" xmlns="http://www.w3.org/2000/svg">
  <path d="M8.52215 41.7421V43.2681H2.39015V33.5661H4.15415V41.7421H8.52215ZM9.86867 33.5661H11.6327V43.2681H9.86867V33.5661ZM16.7286 43.2681C16.0286 41.7561 15.3519 40.1741 14.6986 38.5221C14.0546 36.8701 13.4526 35.2181 12.8926 33.5661H14.8386C15.0626 34.2194 15.2912 34.8867 15.5246 35.5681C15.7579 36.2494 15.9912 36.9214 16.2246 37.5841C16.4579 38.2374 16.6912 38.8721 16.9246 39.4881C17.1579 40.1041 17.3866 40.6687 17.6106 41.1821C17.8252 40.6687 18.0492 40.1087 18.2826 39.5021C18.5159 38.8861 18.7492 38.2467 18.9826 37.5841C19.2252 36.9214 19.4632 36.2494 19.6966 35.5681C19.9299 34.8867 20.1539 34.2194 20.3686 33.5661H22.2586C21.6892 35.2181 21.0826 36.8701 20.4386 38.5221C19.7946 40.1741 19.1226 41.7561 18.4226 43.2681H16.7286ZM23.5132 43.2681V33.5661H29.7432V35.0641H25.2772V37.4581H29.2532V38.9281H25.2772V41.7701H30.0792V43.2681H23.5132Z" fill="#6A7787"/>
  <path d="M15.2982 13.3721C16.4504 13.3721 17.3844 12.4096 17.3844 11.2221C17.3844 10.0347 16.4504 9.07214 15.2982 9.07214C14.146 9.07214 13.212 10.0347 13.212 11.2221C13.212 12.4096 14.146 13.3721 15.2982 13.3721Z" fill="#6A7787"/>
  <path d="M26.4947 11.2302C26.5384 8.23944 25.5008 5.33891 23.5837 3.09319C23.4137 2.90109 23.1769 2.78606 22.9249 2.77319C22.6744 2.81205 22.4464 2.94449 22.2845 3.1453C22.1226 3.3461 22.038 3.60126 22.0468 3.86219C22.0442 3.98324 22.0675 4.10339 22.1149 4.21415C22.1624 4.32491 22.2328 4.42358 22.3213 4.50319C23.8766 6.3498 24.717 8.72226 24.6821 11.1672C24.717 13.6121 23.8766 15.9846 22.3213 17.8312C22.1528 18.0002 22.0544 18.23 22.0468 18.4722C22.0274 18.6044 22.0354 18.7394 22.0702 18.8682C22.105 18.997 22.1659 19.1168 22.2488 19.2197C22.3318 19.3225 22.4349 19.4061 22.5514 19.465C22.6679 19.5238 22.7952 19.5566 22.9249 19.5612C23.1929 19.5492 23.447 19.4352 23.6381 19.2412C25.5148 17.0244 26.5319 14.1719 26.4947 11.2302Z" fill="#6A7787"/>
  <path d="M21.8139 11.2112C21.8179 9.55869 21.1864 7.97189 20.0576 6.79819C20.0579 6.79063 20.0566 6.78309 20.054 6.77605C20.0513 6.76901 20.0472 6.76261 20.042 6.75726C20.0368 6.75191 20.0306 6.74772 20.0238 6.74496C20.017 6.74219 20.0096 6.74091 20.0023 6.74119C19.9158 6.65944 19.8145 6.59606 19.7042 6.55465C19.5939 6.51325 19.4768 6.49464 19.3595 6.49989C19.2423 6.50514 19.1271 6.53414 19.0208 6.58523C18.9144 6.63633 18.8188 6.70852 18.7395 6.79769C18.6601 6.88686 18.5986 6.99125 18.5585 7.10492C18.5183 7.21858 18.5002 7.33929 18.5053 7.46014C18.5104 7.581 18.5385 7.69964 18.5881 7.80928C18.6377 7.91893 18.7078 8.01744 18.7943 8.09919C19.182 8.50049 19.4885 8.97723 19.6959 9.50169C19.9033 10.0262 20.0074 10.5879 20.0023 11.1542C19.9978 11.724 19.884 12.2872 19.6675 12.8115C19.4511 13.3358 19.1361 13.8108 18.7409 14.2092C18.7336 14.2089 18.7263 14.2102 18.7194 14.213C18.7126 14.2157 18.7064 14.2199 18.7012 14.2253C18.696 14.2306 18.6919 14.237 18.6893 14.244C18.6866 14.2511 18.6853 14.2586 18.6856 14.2662C18.6063 14.3554 18.5448 14.4598 18.5046 14.5734C18.4644 14.6871 18.4464 14.8078 18.4515 14.9286C18.4566 15.0495 18.4847 15.1681 18.5343 15.2778C18.5839 15.3874 18.6539 15.4859 18.7404 15.5677C18.8269 15.6494 18.9282 15.7128 19.0385 15.7542C19.1488 15.7956 19.2659 15.8142 19.3832 15.809C19.5005 15.8037 19.6156 15.7747 19.722 15.7236C19.8284 15.6726 19.924 15.6004 20.0033 15.5112C20.5867 14.9703 21.0504 14.3063 21.3628 13.5643C21.6752 12.8224 21.8291 12.0198 21.8139 11.2112Z" fill="#6A7787"/>
  <path d="M26.4413 0.372169C26.3606 0.254746 26.2532 0.159458 26.1286 0.0946165C26.0039 0.0297751 25.8658 -0.00264996 25.7262 0.000169322C25.4668 0.0288715 25.2291 0.162557 25.0654 0.371833C24.9016 0.581109 24.8252 0.848843 24.8529 1.11617C24.8548 1.32408 24.9332 1.5235 25.0722 1.67417C27.3391 4.2822 28.5904 7.66179 28.5857 11.1632C28.6271 14.6714 27.3708 18.0642 25.0722 20.6522C24.9589 20.8636 24.8845 21.0948 24.8529 21.3342C24.8354 21.4643 24.845 21.5967 24.881 21.7228C24.9169 21.8488 24.9784 21.9655 25.0615 22.0652C25.1445 22.1648 25.2471 22.2451 25.3626 22.3008C25.478 22.3565 25.6036 22.3863 25.731 22.3882C25.8838 22.3859 26.0336 22.3452 26.1676 22.2695C26.3015 22.1939 26.4155 22.0856 26.4995 21.9542C29.0027 18.9778 30.3686 15.1639 30.342 11.2252C30.3743 7.23744 28.9865 3.37596 26.4413 0.372169Z" fill="#6A7787"/>
  <path d="M5.58347 20.7082C3.28512 18.1213 2.02884 14.7295 2.06996 11.2222C2.02884 7.71491 3.28512 4.32311 5.58347 1.73618C5.74634 1.52629 5.82484 1.25998 5.80276 0.992183C5.78357 0.731912 5.67315 0.487727 5.49211 0.305192C5.31107 0.122657 5.07176 0.0142444 4.81886 0.000183105C4.63492 0.0334711 4.46377 0.11941 4.32497 0.248183L4.26578 0.310183L4.21047 0.372183C1.63734 3.36123 0.229445 7.22645 0.258391 11.2222C0.2253 15.19 1.61308 19.031 4.15614 22.0102L4.26578 22.1342L4.32109 22.1962C4.47259 22.339 4.66568 22.4262 4.87029 22.4442C4.99734 22.4519 5.12451 22.4313 5.24313 22.3837C5.36175 22.3362 5.46901 22.2628 5.55762 22.1687C5.64622 22.0745 5.71407 21.9618 5.75655 21.8381C5.79902 21.7145 5.81511 21.5828 5.80373 21.4522C5.78171 21.1911 5.70702 20.9377 5.58444 20.7082H5.58347Z" fill="#6A7787"/>
  <path d="M11.8022 6.74714C11.6236 6.59123 11.3945 6.5105 11.1607 6.52106C10.9269 6.53163 10.7055 6.63272 10.5408 6.80414C9.98241 7.37401 9.53944 8.05254 9.23761 8.80033C8.93578 9.54811 8.78112 10.3502 8.78261 11.1601C8.77864 12.8126 9.41015 14.3994 10.5389 15.5731C10.5386 15.5807 10.5398 15.5882 10.5425 15.5953C10.5452 15.6023 10.5493 15.6087 10.5545 15.6141C10.5597 15.6194 10.5659 15.6236 10.5727 15.6264C10.5795 15.6291 10.5868 15.6304 10.5942 15.6301C10.7689 15.7952 11.0001 15.882 11.237 15.8714C11.4738 15.8608 11.6969 15.7537 11.857 15.5736C12.0172 15.3936 12.1015 15.1553 12.0912 14.9112C12.0809 14.6671 11.977 14.4372 11.8022 14.2721C11.403 13.8768 11.0854 13.4024 10.8685 12.8774C10.6515 12.3525 10.5397 11.7877 10.5397 11.2171C10.5397 10.6466 10.6515 10.0818 10.8685 9.55687C11.0854 9.03191 11.403 8.55751 11.8022 8.16214C11.8096 8.16242 11.8169 8.16114 11.8237 8.15838C11.8305 8.15561 11.8367 8.15142 11.8419 8.14607C11.8471 8.14072 11.8512 8.13433 11.8539 8.12728C11.8566 8.12024 11.8578 8.11271 11.8575 8.10515C11.9451 8.01475 12.0135 7.90663 12.0585 7.78761C12.1034 7.66859 12.1239 7.54126 12.1187 7.41365C12.1135 7.28604 12.0827 7.16093 12.0283 7.04621C11.9738 6.93149 11.8968 6.82966 11.8022 6.74714Z" fill="#6A7787"/>
  <path d="M8.2732 17.8832C6.75033 16.0179 5.9144 13.6589 5.91243 11.2212C5.87771 8.77687 6.71817 6.4051 8.2732 4.55916C8.4256 4.34281 8.503 4.07994 8.49297 3.81279C8.48294 3.54564 8.38606 3.28973 8.21789 3.08616C8.13906 3.00015 8.04305 2.9328 7.9365 2.88873C7.82996 2.84467 7.7154 2.82495 7.60074 2.83094C7.48609 2.83693 7.37405 2.86848 7.27238 2.92342C7.1707 2.97836 7.08179 3.05538 7.0118 3.14916C7.00397 3.14926 6.99625 3.15103 6.98913 3.15438C6.98201 3.15772 6.97564 3.16256 6.97044 3.16858C6.96523 3.17461 6.9613 3.18168 6.9589 3.18936C6.9565 3.19703 6.95568 3.20514 6.95649 3.21316C6.95649 3.21316 6.95649 3.27716 6.90118 3.27716C5.06546 5.48852 4.07048 8.31112 4.10086 11.2212C4.05536 14.1533 5.05089 17.0015 6.90021 19.2302C6.90021 19.2302 6.90021 19.2942 6.95552 19.2942C7.0266 19.3954 7.11884 19.4789 7.22542 19.5384C7.33201 19.598 7.45022 19.6321 7.57131 19.6382C7.69241 19.6444 7.8133 19.6224 7.92504 19.5739C8.03679 19.5254 8.13654 19.4517 8.21692 19.3582C8.3983 19.1615 8.50396 18.9035 8.51414 18.6324C8.52432 18.3613 8.43832 18.0957 8.27223 17.8852L8.2732 17.8832Z" fill="#6A7787"/>
</svg>
