<svg width="59" height="46" viewBox="0 0 59 46" fill="none" xmlns="http://www.w3.org/2000/svg">
<path d="M57.7322 13.3173L45.9982 1.22433C45.2371 0.440376 44.2051 0 43.129 0C42.0529 0 41.0209 0.440376 40.2598 1.22433L30.9739 10.7943C30.6573 11.1201 30.2283 11.3031 29.7809 11.3031C29.3335 11.3031 28.9044 11.1201 28.5879 10.7943L19.302 1.22433C18.5409 0.440376 17.5089 0 16.4328 0C15.3567 0 14.3247 0.440376 13.5636 1.22433L12.6039 2.21333C12.5648 2.25364 12.5338 2.3015 12.5126 2.35417C12.4914 2.40685 12.4805 2.46332 12.4805 2.52034C12.4805 2.57736 12.4914 2.63382 12.5126 2.68649C12.5338 2.73917 12.5648 2.78703 12.6039 2.82733L40.2578 31.3273C41.0189 32.1113 42.051 32.5517 43.127 32.5517C44.2031 32.5517 45.2351 32.1113 45.9963 31.3273L57.7302 19.2343C58.4918 18.45 58.9199 17.3859 58.9203 16.2762C58.9206 15.1666 58.4933 14.1023 57.7322 13.3173ZM51.1215 17.5033L44.3225 24.5103C44.0062 24.836 43.5775 25.0189 43.1304 25.0189C42.6834 25.0189 42.2546 24.836 41.9384 24.5103L35.1394 17.5033C34.8234 17.1774 34.6459 16.7356 34.6459 16.2748C34.6459 15.8141 34.8234 15.3722 35.1394 15.0463L41.9384 8.03934C42.2546 7.71368 42.6834 7.53075 43.1304 7.53075C43.5775 7.53075 44.0062 7.71368 44.3225 8.03934L51.1215 15.0463C51.4375 15.3722 51.6149 15.8141 51.6149 16.2748C51.6149 16.7356 51.4375 17.1774 51.1215 17.5033Z" fill="white"/>
<path d="M20.8865 21.2382L17.7126 24.5102C17.3964 24.8359 16.9676 25.0188 16.5206 25.0188C16.0735 25.0188 15.6448 24.8359 15.3285 24.5102L8.52956 17.5032C8.21356 17.1773 8.03607 16.7354 8.03607 16.2747C8.03607 15.814 8.21356 15.3721 8.52956 15.0462L14.1719 9.23122C14.2111 9.19091 14.2421 9.14305 14.2633 9.09038C14.2845 9.0377 14.2954 8.98125 14.2954 8.92422C14.2954 8.8672 14.2845 8.81073 14.2633 8.75806C14.2421 8.70538 14.2111 8.65752 14.1719 8.61722L10.6245 4.96121C10.5854 4.92088 10.5389 4.88888 10.4878 4.86705C10.4367 4.84522 10.3819 4.83398 10.3266 4.83398C10.2713 4.83398 10.2165 4.84522 10.1653 4.86705C10.1142 4.88888 10.0678 4.92088 10.0287 4.96121L1.91883 13.3192C1.54212 13.7074 1.24329 14.1682 1.03941 14.6754C0.835531 15.1826 0.730591 15.7262 0.730591 16.2752C0.730591 16.8242 0.835531 17.3678 1.03941 17.875C1.24329 18.3822 1.54212 18.8431 1.91883 19.2312L13.6528 31.3242C14.4139 32.1082 15.4459 32.5486 16.522 32.5486C17.5981 32.5486 18.6301 32.1082 19.3912 31.3242L27.5011 22.9662C27.5402 22.9259 27.5713 22.8781 27.5925 22.8254C27.6137 22.7727 27.6246 22.7162 27.6246 22.6592C27.6246 22.6022 27.6137 22.5457 27.5925 22.4931C27.5713 22.4404 27.5402 22.3925 27.5011 22.3522L26.4202 21.2382C25.6859 20.4828 24.6908 20.0585 23.6533 20.0585C22.6158 20.0585 21.6207 20.4828 20.8865 21.2382Z" fill="#1CAF4B"/>
<path d="M16.9704 45.6383C13.8363 45.6383 12.8495 43.3714 12.8495 41.7284C12.8495 40.0854 13.8363 37.8184 16.9704 37.8184C20.1045 37.8184 21.0913 40.0854 21.0913 41.7284C21.0913 43.3714 20.1045 45.6383 16.9704 45.6383ZM16.9704 43.8134C17.2453 43.8286 17.5204 43.7859 17.7788 43.6879C18.0372 43.5899 18.2735 43.4388 18.4734 43.2436C18.6732 43.0484 18.8324 42.8132 18.9411 42.5526C19.0499 42.2919 19.106 42.0111 19.106 41.7274C19.106 41.4436 19.0499 41.1628 18.9411 40.9021C18.8324 40.6415 18.6732 40.4063 18.4734 40.2112C18.2735 40.016 18.0372 39.8647 17.7788 39.7668C17.5204 39.6688 17.2453 39.6262 16.9704 39.6414C16.6955 39.6262 16.4204 39.6688 16.162 39.7668C15.9036 39.8647 15.6673 40.016 15.4674 40.2112C15.2676 40.4063 15.1085 40.6415 14.9997 40.9021C14.8909 41.1628 14.8348 41.4436 14.8348 41.7274C14.8348 42.0111 14.8909 42.2919 14.9997 42.5526C15.1085 42.8132 15.2676 43.0484 15.4674 43.2436C15.6673 43.4388 15.9036 43.5899 16.162 43.6879C16.4204 43.7859 16.6955 43.8286 16.9704 43.8134Z" fill="#1CAF4B"/>
<path d="M33.2086 45.6383C30.0745 45.6383 29.0877 43.3714 29.0877 41.7284C29.0877 40.0854 30.0745 37.8184 33.2086 37.8184C36.3427 37.8184 37.3295 40.0854 37.3295 41.7284C37.3295 43.3714 36.3417 45.6383 33.2086 45.6383ZM33.2086 43.8134C33.4835 43.8286 33.7586 43.7859 34.017 43.6879C34.2754 43.5899 34.5117 43.4388 34.7116 43.2436C34.9114 43.0484 35.0706 42.8132 35.1793 42.5526C35.2881 42.2919 35.3442 42.0111 35.3442 41.7274C35.3442 41.4436 35.2881 41.1628 35.1793 40.9021C35.0706 40.6415 34.9114 40.4063 34.7116 40.2112C34.5117 40.016 34.2754 39.8647 34.017 39.7668C33.7586 39.6688 33.4835 39.6262 33.2086 39.6414C32.9337 39.6262 32.6586 39.6688 32.4002 39.7668C32.1418 39.8647 31.9055 40.016 31.7057 40.2112C31.5058 40.4063 31.3467 40.6415 31.2379 40.9021C31.1291 41.1628 31.073 41.4436 31.073 41.7274C31.073 42.0111 31.1291 42.2919 31.2379 42.5526C31.3467 42.8132 31.5058 43.0484 31.7057 43.2436C31.9055 43.4388 32.1418 43.5899 32.4002 43.6879C32.6586 43.7859 32.9337 43.8286 33.2086 43.8134Z" fill="#1CAF4B"/>
<path d="M6.60651 40.1294L7.28088 38.9614C7.29797 38.9329 7.30498 38.8993 7.30073 38.8661C7.29649 38.8329 7.28125 38.8023 7.25759 38.7794C6.59937 38.1436 5.72598 37.7984 4.82405 37.8174C1.68994 37.8174 0.703125 40.0844 0.703125 41.7274C0.703125 43.3704 1.68994 45.6374 4.82405 45.6374C5.32125 45.6553 5.81565 45.5535 6.26805 45.3402C6.72044 45.1269 7.11838 44.8078 7.4303 44.4084C7.44624 44.3842 7.45476 44.3556 7.45476 44.3264C7.45476 44.2972 7.44624 44.2686 7.4303 44.2444L6.72973 43.1214C6.71896 43.1041 6.70483 43.0894 6.68823 43.078C6.67164 43.0667 6.65294 43.0591 6.63332 43.0556C6.6137 43.0521 6.5936 43.0529 6.57429 43.0578C6.55497 43.0628 6.53687 43.0718 6.52112 43.0844C6.00501 43.553 5.3411 43.8121 4.65327 43.8134C4.12606 43.8006 3.62489 43.5746 3.25785 43.1844C2.89081 42.7942 2.68732 42.2709 2.69129 41.7274C2.67645 41.44 2.72227 41.1527 2.82557 40.8852C2.92886 40.6178 3.08718 40.3767 3.28962 40.1784C3.49207 39.9801 3.73382 39.8294 3.99821 39.7367C4.26261 39.644 4.54337 39.6115 4.82113 39.6414C5.38823 39.6415 5.94054 39.8278 6.39789 40.1734C6.41406 40.1856 6.43254 40.1942 6.45214 40.1987C6.47174 40.2031 6.49202 40.2032 6.51167 40.1991C6.53133 40.1949 6.54991 40.1866 6.56625 40.1746C6.58258 40.1626 6.5963 40.1472 6.60651 40.1294Z" fill="#1CAF4B"/>
<path d="M27.9524 40.1294L28.6268 38.9614C28.6439 38.9329 28.6509 38.8993 28.6466 38.8661C28.6424 38.8329 28.6271 38.8023 28.6035 38.7794C27.9453 38.1436 27.0719 37.7984 26.1699 37.8174C23.0358 37.8174 22.049 40.0844 22.049 41.7274C22.049 43.3704 23.0358 45.6374 26.1699 45.6374C26.6671 45.6553 27.1616 45.5535 27.6139 45.3402C28.0663 45.1269 28.4643 44.8078 28.7762 44.4084C28.7921 44.3842 28.8007 44.3556 28.8007 44.3264C28.8007 44.2972 28.7921 44.2686 28.7762 44.2444L28.0756 43.1214C28.0649 43.1041 28.0507 43.0894 28.0341 43.078C28.0175 43.0667 27.9989 43.0591 27.9792 43.0556C27.9596 43.0521 27.9395 43.0529 27.9202 43.0578C27.9009 43.0628 27.8828 43.0718 27.867 43.0844C27.3509 43.553 26.687 43.8121 25.9992 43.8134C25.472 43.8006 24.9708 43.5746 24.6038 43.1844C24.2367 42.7942 24.0332 42.2709 24.0372 41.7274C24.0224 41.44 24.0682 41.1527 24.1715 40.8852C24.2747 40.6178 24.4331 40.3767 24.6355 40.1784C24.838 39.9801 25.0797 39.8294 25.3441 39.7367C25.6085 39.644 25.8893 39.6115 26.167 39.6414C26.7341 39.6415 27.2864 39.8278 27.7438 40.1734C27.76 40.1856 27.7784 40.1942 27.798 40.1987C27.8176 40.2031 27.8379 40.2032 27.8576 40.1991C27.8772 40.1949 27.8958 40.1866 27.9122 40.1746C27.9285 40.1626 27.9422 40.1472 27.9524 40.1294Z" fill="#1CAF4B"/>
<path d="M10.4383 41.5874C10.4383 41.7724 10.4383 44.7873 10.4383 45.4873C10.4384 45.5068 10.4348 45.5261 10.4276 45.5441C10.4205 45.5622 10.4099 45.5785 10.3965 45.5923C10.3832 45.6061 10.3673 45.617 10.3498 45.6244C10.3323 45.6318 10.3136 45.6355 10.2947 45.6354H8.37348C8.35458 45.6355 8.33585 45.6318 8.31837 45.6244C8.30089 45.617 8.285 45.6061 8.27164 45.5923C8.25828 45.5785 8.24772 45.5622 8.24055 45.5441C8.23338 45.5261 8.22973 45.5068 8.22986 45.4873V41.7134C8.22986 40.2134 9.04688 37.8824 12.3605 37.8134C12.3797 37.8131 12.3987 37.8168 12.4166 37.8241C12.4344 37.8315 12.4506 37.8424 12.4643 37.8562C12.478 37.8701 12.489 37.8866 12.4964 37.9048C12.5039 37.923 12.5079 37.9426 12.508 37.9624V39.4924C12.5085 39.5309 12.4942 39.5681 12.4682 39.5958C12.4422 39.6236 12.4066 39.6396 12.3692 39.6404C12.1127 39.6127 11.8533 39.6437 11.6097 39.7311C11.3661 39.8186 11.1442 39.9603 10.9598 40.1462C10.7754 40.3321 10.6331 40.5577 10.5429 40.8068C10.4528 41.0559 10.4171 41.3224 10.4383 41.5874Z" fill="#1CAF4B"/>
<path d="M42.0957 37.8164C41.5343 37.8557 40.99 38.0315 40.5073 38.3294V36.1504C40.5073 36.1299 40.5033 36.1096 40.4953 36.0908C40.4874 36.072 40.4758 36.0551 40.4612 36.0412C40.4466 36.0273 40.4293 36.0167 40.4106 36.01C40.3918 36.0033 40.3718 36.0007 40.352 36.0024L38.4308 36.1534C38.3946 36.1562 38.3607 36.173 38.3361 36.2004C38.3114 36.2279 38.2978 36.2639 38.2979 36.3014V44.8714C38.2979 44.9008 38.3064 44.9295 38.3223 44.9539C38.3382 44.9783 38.3607 44.9972 38.3871 45.0084C39.5751 45.4489 40.8315 45.6611 42.0937 45.6344C43.0997 45.6344 44.0644 45.2225 44.7757 44.4894C45.4871 43.7564 45.8867 42.7621 45.8867 41.7254C45.8867 40.6886 45.4871 39.6944 44.7757 38.9613C44.0644 38.2282 43.0997 37.8164 42.0937 37.8164H42.0957ZM41.9841 43.8164C41.4871 43.8289 40.9907 43.7747 40.5073 43.6554V40.2074C40.908 39.8258 41.4389 39.623 41.9841 39.6434C42.5021 39.672 42.9898 39.9043 43.3467 40.2923C43.7036 40.6804 43.9025 41.1947 43.9025 41.7294C43.9025 42.264 43.7036 42.7784 43.3467 43.1664C42.9898 43.5545 42.5021 43.7867 41.9841 43.8154V43.8164Z" fill="white"/>
<path d="M58.919 45.3234C58.9265 45.3613 58.9194 45.4007 58.8991 45.4332C58.8787 45.4657 58.8469 45.4888 58.8103 45.4974C58.3877 45.5925 57.9562 45.6394 57.5237 45.6374C57.2012 45.6865 56.8722 45.6617 56.5602 45.5647C56.2481 45.4678 55.9606 45.301 55.7183 45.0764C55.4759 44.8517 55.2847 44.5747 55.1582 44.2652C55.0316 43.9556 54.9729 43.621 54.9863 43.2854V36.3004C54.9862 36.263 54.9998 36.2269 55.0245 36.1994C55.0492 36.172 55.083 36.1552 55.1192 36.1524L57.0405 36.0014C57.0602 35.9999 57.08 36.0026 57.0987 36.0093C57.1173 36.0161 57.1345 36.0267 57.1489 36.0406C57.1634 36.0545 57.175 36.0714 57.1829 36.0901C57.1908 36.1088 57.1948 36.129 57.1947 36.1494V37.6674C57.1946 37.6868 57.1982 37.7062 57.2054 37.7242C57.2126 37.7422 57.2231 37.7586 57.2365 37.7723C57.2498 37.7861 57.2657 37.797 57.2832 37.8044C57.3007 37.8118 57.3195 37.8155 57.3383 37.8154H58.5085C58.5274 37.8152 58.5461 37.819 58.5636 37.8264C58.5811 37.8338 58.597 37.8447 58.6103 37.8584C58.6237 37.8722 58.6343 37.8886 58.6414 37.9066C58.6486 37.9246 58.6523 37.9439 58.6522 37.9634V39.4934C58.6523 39.5129 58.6486 39.5322 58.6414 39.5502C58.6343 39.5682 58.6237 39.5846 58.6103 39.5983C58.597 39.6121 58.5811 39.623 58.5636 39.6304C58.5461 39.6378 58.5274 39.6415 58.5085 39.6414H57.3383C57.3195 39.6413 57.3007 39.645 57.2832 39.6524C57.2657 39.6598 57.2498 39.6707 57.2365 39.6844C57.2231 39.6982 57.2126 39.7146 57.2054 39.7326C57.1982 39.7506 57.1946 39.7699 57.1947 39.7894V42.8194C57.2103 43.8724 57.6391 44.0644 58.5201 43.9644C58.5561 43.9599 58.5924 43.9696 58.6217 43.9914C58.651 44.0133 58.6713 44.0458 58.6783 44.0824L58.919 45.3234Z" fill="white"/>
<path d="M48.9626 41.0623H51.3525C51.4298 41.0694 51.5076 41.0599 51.5812 41.0345C51.6547 41.0091 51.7224 40.9683 51.78 40.9147C51.8376 40.8611 51.8837 40.7958 51.9157 40.723C51.9476 40.6501 51.9647 40.5713 51.9657 40.4913C51.941 40.2496 51.8273 40.0268 51.6481 39.8687C51.4689 39.7106 51.2378 39.6293 51.0022 39.6414C50.5557 39.6016 50.1095 39.721 49.7383 39.9797C49.367 40.2384 49.0932 40.6205 48.9626 41.0623ZM51.0003 37.8163C52.2132 37.8163 53.9675 38.6163 53.9675 40.3873C53.9675 41.8573 52.8914 42.7213 50.7072 42.7213H49.1189C49.3268 43.1229 49.6422 43.4545 50.0277 43.6766C50.4132 43.8987 50.8525 44.0021 51.2933 43.9743C51.9055 43.9591 52.5049 43.7906 53.0399 43.4833C53.0574 43.4747 53.0764 43.4699 53.0958 43.4691C53.1152 43.4683 53.1345 43.4715 53.1527 43.4786C53.1708 43.4857 53.1873 43.4965 53.2013 43.5104C53.2153 43.5243 53.2264 43.5409 53.2339 43.5594C53.3911 43.9594 53.5454 44.3433 53.7016 44.7393C53.7149 44.7728 53.716 44.8102 53.7046 44.8444C53.6931 44.8786 53.6701 44.9074 53.6395 44.9254C52.8341 45.4073 51.916 45.6532 50.9847 45.6364C47.8506 45.6364 46.8755 43.3693 46.8755 41.7263C46.8755 40.0833 47.8701 37.8163 51.0042 37.8163H51.0003Z" fill="white"/>
</svg>
