<svg width="41" height="51" viewBox="0 0 41 51" fill="none" xmlns="http://www.w3.org/2000/svg">
  <path d="M3.92025 46.248C4.55492 46.248 5.01692 46.1406 5.30625 45.926C5.59558 45.7113 5.74025 45.408 5.74025 45.016C5.74025 44.7826 5.68892 44.582 5.58625 44.414C5.49292 44.246 5.35292 44.0966 5.16625 43.966C4.98892 43.826 4.76958 43.7 4.50825 43.588C4.24692 43.4666 3.94825 43.35 3.61225 43.238C3.27625 43.1166 2.94958 42.986 2.63225 42.846C2.32425 42.6966 2.04892 42.5146 1.80625 42.3C1.57292 42.0853 1.38158 41.8286 1.23225 41.53C1.09225 41.2313 1.02225 40.872 1.02225 40.452C1.02225 39.5746 1.32558 38.8886 1.93225 38.394C2.53892 37.89 3.36492 37.638 4.41025 37.638C5.01692 37.638 5.55358 37.708 6.02025 37.848C6.49625 37.9786 6.86958 38.1233 7.14025 38.282L6.59425 39.71C6.27692 39.5326 5.92692 39.3973 5.54425 39.304C5.17092 39.2106 4.78358 39.164 4.38225 39.164C3.90625 39.164 3.53292 39.262 3.26225 39.458C3.00092 39.654 2.87025 39.9293 2.87025 40.284C2.87025 40.4986 2.91225 40.6853 2.99625 40.844C3.08958 40.9933 3.21558 41.1286 3.37425 41.25C3.54225 41.3713 3.73358 41.4833 3.94825 41.586C4.17225 41.6886 4.41492 41.7866 4.67625 41.88C5.13358 42.048 5.53958 42.2206 5.89425 42.398C6.25825 42.566 6.56158 42.7713 6.80425 43.014C7.05625 43.2473 7.24758 43.5273 7.37825 43.854C7.50892 44.1713 7.57425 44.5586 7.57425 45.016C7.57425 45.8933 7.26158 46.5746 6.63625 47.06C6.02025 47.536 5.11492 47.774 3.92025 47.774C3.51892 47.774 3.15025 47.746 2.81425 47.69C2.48758 47.6433 2.19358 47.5826 1.93225 47.508C1.68025 47.4333 1.46092 47.3586 1.27425 47.284C1.08758 47.2 0.93825 47.1253 0.82625 47.06L1.34425 45.618C1.59625 45.758 1.93692 45.898 2.36625 46.038C2.79558 46.178 3.31358 46.248 3.92025 46.248ZM15.2608 46.038V47.564H9.1288V37.862H10.8928V46.038H15.2608ZM17.4888 42.706C17.4888 43.238 17.5541 43.7233 17.6848 44.162C17.8154 44.5913 18.0021 44.96 18.2448 45.268C18.4968 45.5666 18.8001 45.8 19.1548 45.968C19.5094 46.136 19.9108 46.22 20.3588 46.22C20.7974 46.22 21.1941 46.136 21.5488 45.968C21.9034 45.8 22.2021 45.5666 22.4448 45.268C22.6968 44.96 22.8881 44.5913 23.0188 44.162C23.1494 43.7233 23.2148 43.238 23.2148 42.706C23.2148 42.174 23.1494 41.6933 23.0188 41.264C22.8881 40.8253 22.6968 40.4566 22.4448 40.158C22.2021 39.85 21.9034 39.612 21.5488 39.444C21.1941 39.276 20.7974 39.192 20.3588 39.192C19.9108 39.192 19.5094 39.276 19.1548 39.444C18.8001 39.612 18.4968 39.85 18.2448 40.158C18.0021 40.466 17.8154 40.8346 17.6848 41.264C17.5541 41.6933 17.4888 42.174 17.4888 42.706ZM25.0628 42.706C25.0628 43.5366 24.9368 44.2693 24.6848 44.904C24.4421 45.5386 24.1061 46.0706 23.6768 46.5C23.2568 46.92 22.7621 47.2373 22.1928 47.452C21.6234 47.6666 21.0168 47.774 20.3728 47.774C19.7288 47.774 19.1174 47.6666 18.5388 47.452C17.9694 47.2373 17.4701 46.92 17.0408 46.5C16.6208 46.0706 16.2848 45.5386 16.0328 44.904C15.7808 44.2693 15.6548 43.5366 15.6548 42.706C15.6548 41.8753 15.7808 41.1473 16.0328 40.522C16.2848 39.8873 16.6254 39.3553 17.0548 38.926C17.4934 38.4966 17.9974 38.1746 18.5668 37.96C19.1361 37.7453 19.7381 37.638 20.3728 37.638C21.0074 37.638 21.6094 37.7453 22.1788 37.96C22.7481 38.1746 23.2428 38.4966 23.6628 38.926C24.0921 39.3553 24.4328 39.8873 24.6848 40.522C24.9368 41.1473 25.0628 41.8753 25.0628 42.706ZM33.4181 37.862V39.388H30.4361V47.564H28.6581V39.388H25.6761V37.862H33.4181ZM37.1156 46.248C37.7502 46.248 38.2122 46.1406 38.5016 45.926C38.7909 45.7113 38.9356 45.408 38.9356 45.016C38.9356 44.7826 38.8842 44.582 38.7816 44.414C38.6882 44.246 38.5482 44.0966 38.3616 43.966C38.1842 43.826 37.9649 43.7 37.7036 43.588C37.4422 43.4666 37.1436 43.35 36.8076 43.238C36.4716 43.1166 36.1449 42.986 35.8276 42.846C35.5196 42.6966 35.2442 42.5146 35.0016 42.3C34.7682 42.0853 34.5769 41.8286 34.4276 41.53C34.2876 41.2313 34.2176 40.872 34.2176 40.452C34.2176 39.5746 34.5209 38.8886 35.1276 38.394C35.7342 37.89 36.5602 37.638 37.6056 37.638C38.2122 37.638 38.7489 37.708 39.2156 37.848C39.6916 37.9786 40.0649 38.1233 40.3356 38.282L39.7896 39.71C39.4722 39.5326 39.1222 39.3973 38.7396 39.304C38.3662 39.2106 37.9789 39.164 37.5776 39.164C37.1016 39.164 36.7282 39.262 36.4576 39.458C36.1962 39.654 36.0656 39.9293 36.0656 40.284C36.0656 40.4986 36.1076 40.6853 36.1916 40.844C36.2849 40.9933 36.4109 41.1286 36.5696 41.25C36.7376 41.3713 36.9289 41.4833 37.1436 41.586C37.3676 41.6886 37.6102 41.7866 37.8716 41.88C38.3289 42.048 38.7349 42.2206 39.0896 42.398C39.4536 42.566 39.7569 42.7713 39.9996 43.014C40.2516 43.2473 40.4429 43.5273 40.5736 43.854C40.7042 44.1713 40.7696 44.5586 40.7696 45.016C40.7696 45.8933 40.4569 46.5746 39.8316 47.06C39.2156 47.536 38.3102 47.774 37.1156 47.774C36.7142 47.774 36.3456 47.746 36.0096 47.69C35.6829 47.6433 35.3889 47.5826 35.1276 47.508C34.8756 47.4333 34.6562 47.3586 34.4696 47.284C34.2829 47.2 34.1336 47.1253 34.0216 47.06L34.5396 45.618C34.7916 45.758 35.1322 45.898 35.5616 46.038C35.9909 46.178 36.5089 46.248 37.1156 46.248Z" fill="white"/>
  <path d="M34.9721 6.074L31.0026 1.364V1.3C30.7704 0.905426 30.444 0.578757 30.0545 0.351173C29.665 0.123589 29.2254 0.00268443 28.7777 0H11.8176C11.3698 0.00268443 10.9302 0.123589 10.5407 0.351173C10.1512 0.578757 9.82481 0.905426 9.59265 1.3L5.62311 6.074C5.35472 6.55196 5.22873 7.10075 5.26082 7.65198C5.29292 8.20322 5.48167 8.73254 5.80358 9.174L18.2527 25.909C18.4907 26.2362 18.7995 26.5019 19.1544 26.6848C19.5094 26.8678 19.9008 26.963 20.2976 26.963C20.6945 26.963 21.0859 26.8678 21.4408 26.6848C21.7958 26.5019 22.1045 26.2362 22.3426 25.909L34.7917 9.235C35.1129 8.78149 35.3007 8.24232 35.3327 7.68183C35.3647 7.12134 35.2395 6.5632 34.9721 6.074ZM29.4414 2.293L33.2877 6.632H26.5518L22.2824 1.859H28.7175C28.8653 1.85393 29.0115 1.89197 29.1392 1.96875C29.2669 2.04554 29.371 2.15793 29.4394 2.293H29.4414ZM20.2971 23.119L15.6668 8.429H24.9886L20.2971 23.119ZM16.4489 6.632L20.2981 2.293L24.1473 6.632H16.4489ZM11.1558 2.293C11.2278 2.17444 11.3246 2.07394 11.4391 1.99885C11.5536 1.92377 11.6829 1.87598 11.8176 1.859H18.2527L13.9833 6.632H7.36676L11.1558 2.293ZM7.42692 8.429H13.7417L18.4332 23.18L7.42692 8.429ZM22.1621 23.181L26.8535 8.43H33.1683L22.1621 23.181Z" fill="white"/>
</svg>
