<svg width="45" height="12" viewBox="0 0 45 12" fill="none" xmlns="http://www.w3.org/2000/svg">
  <path d="M3.97964 9.60392C4.6143 9.60392 5.0763 9.49659 5.36564 9.28192C5.65497 9.06726 5.79964 8.76392 5.79964 8.37192C5.79964 8.13859 5.7483 7.93792 5.64564 7.76992C5.5523 7.60192 5.4123 7.45259 5.22564 7.32192C5.0483 7.18192 4.82897 7.05592 4.56764 6.94392C4.3063 6.82259 4.00764 6.70592 3.67164 6.59392C3.33564 6.47259 3.00897 6.34192 2.69164 6.20192C2.38364 6.05259 2.1083 5.87059 1.86564 5.65592C1.6323 5.44125 1.44097 5.18459 1.29164 4.88592C1.15164 4.58725 1.08164 4.22792 1.08164 3.80792C1.08164 2.93059 1.38497 2.24459 1.99164 1.74992C2.5983 1.24592 3.4243 0.993921 4.46964 0.993921C5.0763 0.993921 5.61297 1.06392 6.07964 1.20392C6.55564 1.33459 6.92897 1.47925 7.19964 1.63792L6.65364 3.06592C6.3363 2.88859 5.9863 2.75325 5.60364 2.65992C5.2303 2.56659 4.84297 2.51992 4.44164 2.51992C3.96564 2.51992 3.5923 2.61792 3.32164 2.81392C3.0603 3.00992 2.92964 3.28525 2.92964 3.63992C2.92964 3.85459 2.97164 4.04126 3.05564 4.19992C3.14897 4.34925 3.27497 4.48459 3.43364 4.60592C3.60164 4.72725 3.79297 4.83925 4.00764 4.94192C4.23164 5.04459 4.4743 5.14259 4.73564 5.23592C5.19297 5.40392 5.59897 5.57659 5.95364 5.75392C6.31764 5.92192 6.62097 6.12726 6.86364 6.36992C7.11564 6.60326 7.30697 6.88326 7.43764 7.20992C7.5683 7.52726 7.63364 7.91459 7.63364 8.37192C7.63364 9.24926 7.32097 9.93059 6.69564 10.4159C6.07964 10.8919 5.1743 11.1299 3.97964 11.1299C3.5783 11.1299 3.20964 11.1019 2.87364 11.0459C2.54697 10.9993 2.25297 10.9386 1.99164 10.8639C1.73964 10.7893 1.5203 10.7146 1.33364 10.6399C1.14697 10.5559 0.997637 10.4813 0.885637 10.4159L1.40364 8.97392C1.65564 9.11392 1.9963 9.25392 2.42564 9.39392C2.85497 9.53392 3.37297 9.60392 3.97964 9.60392ZM11.9322 1.11992C13.3415 1.11992 14.4195 1.37659 15.1662 1.88992C15.9222 2.40325 16.3002 3.20592 16.3002 4.29792C16.3002 4.86725 16.1975 5.35725 15.9922 5.76792C15.7962 6.16925 15.5069 6.50059 15.1242 6.76192C14.7415 7.01392 14.2749 7.20059 13.7242 7.32192C13.1735 7.44326 12.5435 7.50392 11.8342 7.50392H10.9522V10.9199H9.18818V1.35792C9.59885 1.26459 10.0515 1.20392 10.5462 1.17592C11.0502 1.13859 11.5122 1.11992 11.9322 1.11992ZM12.0582 2.64592C11.6102 2.64592 11.2415 2.65992 10.9522 2.68792V5.99192H11.8062C12.6555 5.99192 13.3089 5.87525 13.7662 5.64192C14.2235 5.39925 14.4522 4.94659 14.4522 4.28392C14.4522 3.96659 14.3915 3.70059 14.2702 3.48592C14.1489 3.27125 13.9809 3.10325 13.7662 2.98192C13.5515 2.86059 13.2949 2.77659 12.9962 2.72992C12.7069 2.67392 12.3942 2.64592 12.0582 2.64592ZM19.3528 6.06192C19.3528 6.59392 19.4182 7.07925 19.5488 7.51792C19.6795 7.94726 19.8662 8.31592 20.1088 8.62392C20.3608 8.92259 20.6642 9.15592 21.0188 9.32392C21.3735 9.49192 21.7748 9.57592 22.2228 9.57592C22.6615 9.57592 23.0582 9.49192 23.4128 9.32392C23.7675 9.15592 24.0662 8.92259 24.3088 8.62392C24.5608 8.31592 24.7522 7.94726 24.8828 7.51792C25.0135 7.07925 25.0788 6.59392 25.0788 6.06192C25.0788 5.52992 25.0135 5.04925 24.8828 4.61992C24.7522 4.18126 24.5608 3.81259 24.3088 3.51392C24.0662 3.20592 23.7675 2.96792 23.4128 2.79992C23.0582 2.63192 22.6615 2.54792 22.2228 2.54792C21.7748 2.54792 21.3735 2.63192 21.0188 2.79992C20.6642 2.96792 20.3608 3.20592 20.1088 3.51392C19.8662 3.82192 19.6795 4.19059 19.5488 4.61992C19.4182 5.04925 19.3528 5.52992 19.3528 6.06192ZM26.9268 6.06192C26.9268 6.89259 26.8008 7.62525 26.5488 8.25992C26.3062 8.89459 25.9702 9.42659 25.5408 9.85592C25.1208 10.2759 24.6262 10.5933 24.0568 10.8079C23.4875 11.0226 22.8808 11.1299 22.2368 11.1299C21.5928 11.1299 20.9815 11.0226 20.4028 10.8079C19.8335 10.5933 19.3342 10.2759 18.9048 9.85592C18.4848 9.42659 18.1488 8.89459 17.8968 8.25992C17.6448 7.62525 17.5188 6.89259 17.5188 6.06192C17.5188 5.23126 17.6448 4.50325 17.8968 3.87792C18.1488 3.24325 18.4895 2.71125 18.9188 2.28192C19.3575 1.85259 19.8615 1.53059 20.4308 1.31592C21.0002 1.10125 21.6022 0.993921 22.2368 0.993921C22.8715 0.993921 23.4735 1.10125 24.0428 1.31592C24.6122 1.53059 25.1068 1.85259 25.5268 2.28192C25.9562 2.71125 26.2968 3.24325 26.5488 3.87792C26.8008 4.50325 26.9268 5.23126 26.9268 6.06192ZM31.536 1.11992C32.936 1.11992 34.0047 1.37659 34.742 1.88992C35.4887 2.40325 35.862 3.18725 35.862 4.24192C35.862 5.55792 35.2133 6.44925 33.916 6.91592C34.0933 7.13059 34.294 7.39192 34.518 7.69992C34.742 8.00792 34.9707 8.34392 35.204 8.70792C35.4373 9.06259 35.6613 9.43126 35.876 9.81392C36.0907 10.1873 36.282 10.5559 36.45 10.9199H34.476C34.2987 10.5839 34.1073 10.2479 33.902 9.91192C33.6967 9.56659 33.4867 9.23526 33.272 8.91792C33.0667 8.59126 32.8613 8.28792 32.656 8.00792C32.4507 7.71859 32.2593 7.46192 32.082 7.23792C31.9513 7.24725 31.8393 7.25192 31.746 7.25192C31.6527 7.25192 31.564 7.25192 31.48 7.25192H30.626V10.9199H28.862V1.35792C29.2913 1.26459 29.7487 1.20392 30.234 1.17592C30.7193 1.13859 31.1533 1.11992 31.536 1.11992ZM31.662 2.64592C31.2887 2.64592 30.9433 2.65992 30.626 2.68792V5.82392H31.396C31.8253 5.82392 32.2033 5.80059 32.53 5.75392C32.8567 5.70726 33.1273 5.62325 33.342 5.50192C33.566 5.38059 33.734 5.21726 33.846 5.01192C33.958 4.80659 34.014 4.54525 34.014 4.22792C34.014 3.92925 33.958 3.67725 33.846 3.47192C33.734 3.26659 33.5707 3.10325 33.356 2.98192C33.1507 2.86059 32.9033 2.77659 32.614 2.72992C32.3247 2.67392 32.0073 2.64592 31.662 2.64592ZM44.5791 1.21792V2.74392H41.5971V10.9199H39.8191V2.74392H36.8371V1.21792H44.5791Z" fill="#6A7787"/>
</svg>
